<svg width="199" height="57" viewBox="0 0 199 57" fill="none" xmlns="http://www.w3.org/2000/svg">
<path d="M162.5 8.00007C162.5 11.8661 165.634 15.0001 169.5 15.0001C173.366 15.0001 176.5 11.8661 176.5 8.00007C176.5 4.13408 173.366 1.00007 169.5 1.00007C165.634 1.00007 162.5 4.13408 162.5 8.00007Z" fill="#C4C4C4"/>
<path d="M138.826 8.00007C138.826 11.8661 141.96 15.0001 145.826 15.0001C149.692 15.0001 152.826 11.8661 152.826 8.00007C152.826 4.13408 149.692 1.00007 145.826 1.00007C141.96 1.00007 138.826 4.13408 138.826 8.00007Z" fill="#C4C4C4"/>
<path d="M116.755 8.00007C116.755 11.8661 119.889 15.0001 123.755 15.0001C127.621 15.0001 130.755 11.8661 130.755 8.00007C130.755 4.13408 127.621 1.00007 123.755 1.00007C119.889 1.00007 116.755 4.13408 116.755 8.00007Z" fill="#C4C4C4"/>
<path d="M93 8.00007C93 11.8661 96.134 15.0001 100 15.0001C103.866 15.0001 107 11.8661 107 8.00007C107 4.13408 103.866 1.00007 100 1.00007C96.134 1.00007 93 4.13408 93 8.00007Z" fill="#C4C4C4"/>
<path d="M45.5 7.32645C45.5 11.1924 48.634 14.3264 52.5 14.3264C56.366 14.3264 59.5 11.1924 59.5 7.32645C59.5 3.46046 56.366 0.326455 52.5 0.326455C48.634 0.326455 45.5 3.46046 45.5 7.32645Z" fill="#C4C4C4"/>
<path d="M70.5 7.32646C70.5 11.1924 73.634 14.3264 77.5 14.3264C81.366 14.3264 84.5 11.1924 84.5 7.32646C84.5 3.46046 81.366 0.326458 77.5 0.326458C73.634 0.326458 70.5 3.46046 70.5 7.32646Z" fill="#C4C4C4"/>
<path d="M185 7.32649C185 11.1925 188.134 14.3265 192 14.3265C195.866 14.3265 199 11.1925 199 7.32649C199 3.46049 195.866 0.326485 192 0.326485C188.134 0.326485 185 3.46049 185 7.32649Z" fill="#C4C4C4"/>
<path d="M23 7.32636C23 11.1923 26.134 14.3264 30 14.3264C33.866 14.3264 37 11.1923 37 7.32636C37 3.46036 33.866 0.326355 30 0.326355C26.134 0.326355 23 3.46036 23 7.32636Z" fill="#C4C4C4"/>
<path d="M0 7.32636C0 11.1923 3.13404 14.3264 7.00003 14.3264C10.866 14.3264 14 11.1923 14 7.32636C14 3.46036 10.866 0.326359 7.00003 0.326359C3.13404 0.326359 0 3.46036 0 7.32636Z" fill="#C4C4C4"/>
<path d="M162.5 28.5C162.5 32.366 165.634 35.5 169.5 35.5C173.366 35.5 176.5 32.366 176.5 28.5C176.5 24.634 173.366 21.5 169.5 21.5C165.634 21.5 162.5 24.634 162.5 28.5Z" fill="#C4C4C4"/>
<path d="M138.826 28.5C138.826 32.366 141.96 35.5 145.826 35.5C149.692 35.5 152.826 32.366 152.826 28.5C152.826 24.634 149.692 21.5 145.826 21.5C141.96 21.5 138.826 24.634 138.826 28.5Z" fill="#C4C4C4"/>
<path d="M116.755 28.5C116.755 32.366 119.889 35.5 123.755 35.5C127.621 35.5 130.755 32.366 130.755 28.5C130.755 24.634 127.621 21.5 123.755 21.5C119.889 21.5 116.755 24.634 116.755 28.5Z" fill="#C4C4C4"/>
<path d="M93 28.5C93 32.366 96.134 35.5 100 35.5C103.866 35.5 107 32.366 107 28.5C107 24.634 103.866 21.5 100 21.5C96.134 21.5 93 24.634 93 28.5Z" fill="#C4C4C4"/>
<path d="M45.5 27.8264C45.5 31.6924 48.634 34.8264 52.5 34.8264C56.366 34.8264 59.5 31.6924 59.5 27.8264C59.5 23.9604 56.366 20.8264 52.5 20.8264C48.634 20.8264 45.5 23.9604 45.5 27.8264Z" fill="#C4C4C4"/>
<path d="M70.5 27.8264C70.5 31.6924 73.634 34.8264 77.5 34.8264C81.366 34.8264 84.5 31.6924 84.5 27.8264C84.5 23.9604 81.366 20.8264 77.5 20.8264C73.634 20.8264 70.5 23.9604 70.5 27.8264Z" fill="#C4C4C4"/>
<path d="M185 27.8264C185 31.6924 188.134 34.8264 192 34.8264C195.866 34.8264 199 31.6924 199 27.8264C199 23.9604 195.866 20.8264 192 20.8264C188.134 20.8264 185 23.9604 185 27.8264Z" fill="#C4C4C4"/>
<path d="M23 27.8263C23 31.6923 26.134 34.8263 30 34.8263C33.866 34.8263 37 31.6923 37 27.8263C37 23.9603 33.866 20.8263 30 20.8263C26.134 20.8263 23 23.9603 23 27.8263Z" fill="#C4C4C4"/>
<path d="M0 27.8263C0 31.6923 3.13404 34.8263 7.00003 34.8263C10.866 34.8263 14 31.6923 14 27.8263C14 23.9603 10.866 20.8263 7.00003 20.8263C3.13404 20.8263 0 23.9603 0 27.8263Z" fill="#C4C4C4"/>
<path d="M162.5 50C162.5 53.866 165.634 57 169.5 57C173.366 57 176.5 53.866 176.5 50C176.5 46.134 173.366 43 169.5 43C165.634 43 162.5 46.134 162.5 50Z" fill="#C4C4C4"/>
<path d="M138.826 50C138.826 53.866 141.96 57 145.826 57C149.692 57 152.826 53.866 152.826 50C152.826 46.134 149.692 43 145.826 43C141.96 43 138.826 46.134 138.826 50Z" fill="#C4C4C4"/>
<path d="M116.755 50C116.755 53.866 119.889 57 123.755 57C127.621 57 130.755 53.866 130.755 50C130.755 46.134 127.621 43 123.755 43C119.889 43 116.755 46.134 116.755 50Z" fill="#C4C4C4"/>
<path d="M93 50C93 53.866 96.134 57 100 57C103.866 57 107 53.866 107 50C107 46.134 103.866 43 100 43C96.134 43 93 46.134 93 50Z" fill="#C4C4C4"/>
<path d="M45.5 49.3264C45.5 53.1924 48.634 56.3264 52.5 56.3264C56.366 56.3264 59.5 53.1924 59.5 49.3264C59.5 45.4604 56.366 42.3264 52.5 42.3264C48.634 42.3264 45.5 45.4604 45.5 49.3264Z" fill="#C4C4C4"/>
<path d="M70.5 49.3264C70.5 53.1924 73.634 56.3264 77.5 56.3264C81.366 56.3264 84.5 53.1924 84.5 49.3264C84.5 45.4604 81.366 42.3264 77.5 42.3264C73.634 42.3264 70.5 45.4604 70.5 49.3264Z" fill="#C4C4C4"/>
<path d="M185 49.3264C185 53.1924 188.134 56.3264 192 56.3264C195.866 56.3264 199 53.1924 199 49.3264C199 45.4604 195.866 42.3264 192 42.3264C188.134 42.3264 185 45.4604 185 49.3264Z" fill="#C4C4C4"/>
<path d="M23 49.3263C23 53.1923 26.134 56.3263 30 56.3263C33.866 56.3263 37 53.1923 37 49.3263C37 45.4603 33.866 42.3263 30 42.3263C26.134 42.3263 23 45.4603 23 49.3263Z" fill="#C4C4C4"/>
<path d="M0 49.3263C0 53.1923 3.13404 56.3263 7.00003 56.3263C10.866 56.3263 14 53.1923 14 49.3263C14 45.4603 10.866 42.3263 7.00003 42.3263C3.13404 42.3263 0 45.4603 0 49.3263Z" fill="#C4C4C4"/>
</svg>
